<svg viewBox="0 0 15 16" fill="none" xmlns="http://www.w3.org/2000/svg">
<g filter="url(#filter0_i_482_2429)">
<path d="M6.93793 10.3864V14.9806C6.93819 15.0205 6.93 15.0599 6.91389 15.0963C6.89778 15.1327 6.87411 15.1653 6.84447 15.1919C6.81482 15.2185 6.77987 15.2385 6.74192 15.2505C6.70397 15.2626 6.66389 15.2665 6.62434 15.2619C5.32457 15.1023 4.09128 14.5974 3.05263 13.7999C2.01398 13.0024 1.20787 11.9412 0.718086 10.7267C0.703446 10.6898 0.696792 10.6502 0.698561 10.6105C0.70033 10.5709 0.710483 10.532 0.728351 10.4965C0.74622 10.4611 0.771398 10.4298 0.802229 10.4047C0.83306 10.3797 0.868845 10.3615 0.907227 10.3513L5.34324 9.16017C5.40003 9.14527 5.46005 9.14851 5.5149 9.16945C5.56975 9.19038 5.61668 9.22795 5.6491 9.27689C5.91769 9.66545 6.30092 9.96043 6.74527 10.1206C6.80117 10.1392 6.84983 10.1748 6.8844 10.2225C6.91896 10.2702 6.93769 10.3275 6.93793 10.3864ZM7.50465 0.687516C7.43043 0.686959 7.35683 0.701098 7.28809 0.729117C7.21936 0.757136 7.15685 0.798481 7.10417 0.850769C7.05149 0.903058 7.00968 0.965255 6.98115 1.03378C6.95262 1.1023 6.93793 1.17579 6.93793 1.25002V5.18752C6.93681 5.33546 6.99445 5.4778 7.09821 5.58327C7.20197 5.68874 7.34334 5.74872 7.49129 5.75002C8.02253 5.74772 8.53745 5.93348 8.94488 6.27439C9.35231 6.6153 9.62597 7.08939 9.71741 7.6127C9.80886 8.13602 9.71218 8.67481 9.44451 9.13369C9.17683 9.59257 8.75542 9.94194 8.25488 10.1199C8.199 10.1386 8.15041 10.1744 8.11597 10.2223C8.08153 10.2701 8.06297 10.3275 8.06293 10.3864V14.9806C8.06268 15.0204 8.07086 15.0598 8.08693 15.0961C8.10299 15.1325 8.12659 15.165 8.15616 15.1916C8.18572 15.2182 8.22059 15.2382 8.25845 15.2503C8.29632 15.2624 8.33632 15.2664 8.37582 15.2619C10.2289 15.0427 11.9281 14.1234 13.1254 12.6923C14.3228 11.2611 14.9277 9.42635 14.8164 7.56369C14.7051 5.70102 13.8859 3.95139 12.5265 2.67305C11.1672 1.39471 9.37063 0.68438 7.50465 0.687516ZM5.25465 7.82353C5.28083 7.49127 5.38049 7.16898 5.54644 6.87994V6.87502C5.60218 6.77875 5.62812 6.66811 5.62099 6.5571C5.61386 6.44609 5.57397 6.33969 5.50637 6.25134C5.45908 6.19057 5.40031 6.13969 5.3334 6.10158L1.9352 4.13705C1.87117 4.10013 1.80049 4.07619 1.72721 4.0666C1.65393 4.057 1.57947 4.06195 1.5081 4.08115C1.43673 4.10034 1.36984 4.13342 1.31126 4.17848C1.25267 4.22354 1.20355 4.27971 1.16668 4.34377C0.348319 5.7611 0.0284814 7.41178 0.258243 9.0322C0.263664 9.07175 0.277442 9.1097 0.298661 9.14351C0.31988 9.17732 0.348054 9.20623 0.38131 9.22831C0.414566 9.25039 0.452141 9.26514 0.491538 9.27158C0.530935 9.27802 0.571251 9.27599 0.609805 9.26564L5.05496 8.07033C5.11005 8.05511 5.15908 8.02322 5.19533 7.97903C5.23159 7.93485 5.25329 7.88053 5.25746 7.82353H5.25465Z" fill="#ED7300"/>
</g>
<defs>
<filter id="filter0_i_482_2429" x="0.18573" y="0.6875" width="14.6437" height="17.2763" filterUnits="userSpaceOnUse" color-interpolation-filters="sRGB">
<feFlood flood-opacity="0" result="BackgroundImageFix"/>
<feBlend mode="normal" in="SourceGraphic" in2="BackgroundImageFix" result="shape"/>
<feColorMatrix in="SourceAlpha" type="matrix" values="0 0 0 0 0 0 0 0 0 0 0 0 0 0 0 0 0 0 127 0" result="hardAlpha"/>
<feOffset dy="2.7"/>
<feGaussianBlur stdDeviation="1.35"/>
<feComposite in2="hardAlpha" operator="arithmetic" k2="-1" k3="1"/>
<feColorMatrix type="matrix" values="0 0 0 0 1 0 0 0 0 1 0 0 0 0 1 0 0 0 0.5 0"/>
<feBlend mode="overlay" in2="shape" result="effect1_innerShadow_482_2429"/>
</filter>
</defs>
</svg>
