<svg xmlns="http://www.w3.org/2000/svg" viewBox="0 0 53 52" fill="none"><g clip-path="url(#a)"><g filter="url(#b)" opacity=".6"><path fill="#FF6C00" d="M38.399 32.298q-.778-1.69-2.89-2.74 3.182-.795 3.642-4.353.176-1.287-.193-2.348a4.5 4.5 0 0 0-1.233-1.854 9 9 0 0 0-1.961-1.36 17.5 17.5 0 0 0-2.576-1.047l1.112-4.815-.9-1.218-2.043.538-1.08 4.682q-.765-.176-2.34-.5l1.089-4.72-.892-1.299-2.051.62-1.112 4.815a68 68 0 0 1-1.858-.408l-4.046-.955-1.57 1.864.333.969 2.634.79q1.452.336 1.4 1.693L20.6 26.136q.19.045.301.09l-.306-.07-1.773 7.681q-.378.939-1.334.72l-2.12-.49-1.892 2.11.637 1.114 3.677 1.018q.363.084 1.049.252t1.03.247l-1.932 3.581.806 1.292 2.944.68 1.111-4.816q.798.206 2.327.558l-1.876 3.578.769 1.218 2.942.68 1.125-4.873q1.585.285 2.847.355t2.474-.124q1.21-.192 2.111-.69.9-.496 1.626-1.416t1.172-2.246q.863-2.597.084-4.287m-11.2-11.562.757.164q.624.134 1.037.22.413.084 1.097.303.685.219 1.14.424.456.206.978.558.524.352.794.747.27.394.397.937t-.019 1.173a2.7 2.7 0 0 1-.396.935 1.9 1.9 0 0 1-.686.617 5.4 5.4 0 0 1-.827.352q-.413.136-1.008.14-.594.004-1.032-.017a8 8 0 0 1-1.076-.138 71 71 0 0 1-.964-.182 21 21 0 0 1-.889-.205l-.657-.162zm5.032 14.868a2.8 2.8 0 0 1-.645.657 2.7 2.7 0 0 1-.887.398q-.526.141-1 .192a7.5 7.5 0 0 1-1.123.023q-.647-.03-1.127-.09t-1.135-.18-1.02-.206a61 61 0 0 1-.915-.222 62 62 0 0 0-.705-.172l1.492-6.46q.152.036.912.191.759.155 1.237.266.477.11 1.305.362.828.25 1.375.498.546.246 1.17.642t.964.837.504 1.042q.164.6.005 1.29a2.6 2.6 0 0 1-.407.932"/></g><g filter="url(#c)"><path fill="url(#d)" d="M.854 20.862c0-7.194 0-10.791 1.4-13.539A12.85 12.85 0 0 1 7.867 1.71C10.615.31 14.212.31 21.406.31h10.276c7.194 0 10.791 0 13.539 1.4a12.85 12.85 0 0 1 5.613 5.613c1.4 2.748 1.4 6.345 1.4 13.539v10.276c0 7.194 0 10.791-1.4 13.539a12.85 12.85 0 0 1-5.613 5.613c-2.748 1.4-6.345 1.4-13.539 1.4H21.406c-7.194 0-10.791 0-13.539-1.4a12.85 12.85 0 0 1-5.613-5.613c-1.4-2.748-1.4-6.345-1.4-13.539z"/></g><g filter="url(#e)" opacity=".6"><path fill="#000" fill-opacity=".29" d="M38.399 32.298q-.778-1.69-2.89-2.74 3.182-.795 3.642-4.353.176-1.287-.193-2.348a4.5 4.5 0 0 0-1.233-1.854 9 9 0 0 0-1.961-1.36 17.5 17.5 0 0 0-2.576-1.047l1.112-4.815-.9-1.218-2.043.538-1.08 4.682q-.765-.176-2.34-.5l1.089-4.72-.892-1.299-2.051.62-1.112 4.815a68 68 0 0 1-1.858-.408l-4.046-.955-1.57 1.864.333.969 2.634.79q1.452.336 1.4 1.693L20.6 26.136q.19.045.301.09l-.306-.07-1.773 7.681q-.378.939-1.334.72l-2.12-.49-1.892 2.11.637 1.114 3.677 1.018q.363.084 1.049.252t1.03.247l-1.932 3.581.806 1.292 2.944.68 1.111-4.816q.798.206 2.327.558l-1.876 3.578.769 1.218 2.942.68 1.125-4.873q1.585.285 2.847.355t2.474-.124q1.21-.192 2.111-.69.9-.496 1.626-1.416t1.172-2.246q.863-2.597.084-4.287m-11.2-11.562.757.164q.624.134 1.037.22.413.084 1.097.303.685.219 1.14.424.456.206.978.558.524.352.794.747.27.394.397.937t-.019 1.173a2.7 2.7 0 0 1-.396.935 1.9 1.9 0 0 1-.686.617 5.4 5.4 0 0 1-.827.352q-.413.136-1.008.14-.594.004-1.032-.017a8 8 0 0 1-1.076-.138 71 71 0 0 1-.964-.182 21 21 0 0 1-.889-.205l-.657-.162zm5.032 14.868a2.8 2.8 0 0 1-.645.657 2.7 2.7 0 0 1-.887.398q-.526.141-1 .192a7.5 7.5 0 0 1-1.123.023q-.647-.03-1.127-.09t-1.135-.18-1.02-.206a61 61 0 0 1-.915-.222 62 62 0 0 0-.705-.172l1.492-6.46q.152.036.912.191.759.155 1.237.266.477.11 1.305.362.828.25 1.375.498.546.246 1.17.642t.964.837.504 1.042q.164.6.005 1.29a2.6 2.6 0 0 1-.407.932"/></g><path fill="#F6E4CD" d="M38.398 30.292q-.777-1.69-2.89-2.74 3.183-.795 3.642-4.353.177-1.287-.192-2.348a4.5 4.5 0 0 0-1.233-1.854 9 9 0 0 0-1.961-1.359 17.5 17.5 0 0 0-2.576-1.048l1.091-4.727a.2.2 0 0 0-.032-.162l-.823-1.164-2.067.558-1.081 4.682q-.765-.176-2.34-.5l1.07-4.632a.2.2 0 0 0-.032-.161l-.852-1.206-2.04.6-1.111 4.816a68 68 0 0 1-1.858-.41l-4.047-.954-1.434 1.834.263.984a.2.2 0 0 0 .14.142l2.429.664q1.452.335 1.4 1.692l-1.266 5.484q.192.045.302.09l-.306-.07-1.774 7.681q-.377.94-1.333.72l-2.12-.49-1.776 2.088.52 1.136 3.689.956c.242.056.577.155 1.034.267s.803.242 1.033.295l-1.88 3.509.712 1.285c.027.05.074.086.13.099l2.66.614a.2.2 0 0 0 .241-.15l1.067-4.62q.798.204 2.327.557l-1.845 3.462.694 1.256a.2.2 0 0 0 .13.098l2.66.614a.2.2 0 0 0 .241-.15l1.08-4.677q1.585.285 2.846.355t2.474-.124q1.212-.192 2.112-.69.9-.496 1.625-1.416.726-.92 1.172-2.245.862-2.598.085-4.288M27.3 18.75a144 144 0 0 0 1.692.363q.414.086 1.098.304.684.219 1.14.424.456.206.978.558.523.352.794.747.27.394.397.937.126.543-.019 1.173a2.7 2.7 0 0 1-.397.935 1.9 1.9 0 0 1-.685.617 5.4 5.4 0 0 1-.827.353q-.413.135-1.008.14-.594.003-1.032-.018a8 8 0 0 1-1.076-.138 68 68 0 0 1-.964-.182 22 22 0 0 1-.889-.205l-.657-.162 1.331-5.766a.106.106 0 0 1 .124-.08m4.93 14.848a2.8 2.8 0 0 1-.644.657 2.7 2.7 0 0 1-.887.398q-.526.141-1 .192-.475.052-1.123.023-.647-.03-1.127-.089-.48-.06-1.136-.182a26 26 0 0 1-1.934-.426l-.705-.173 1.446-6.263a.204.204 0 0 1 .241-.154l.716.148q.76.156 1.237.266t1.306.362q.828.25 1.375.498.546.247 1.17.642.622.396.964.837.34.44.504 1.042.163.6.004 1.29a2.6 2.6 0 0 1-.406.932"/><g filter="url(#f)" opacity=".3" style="mix-blend-mode:multiply"><path fill="#FF9C11" d="M36.693 36.702c-1.584.209-3.403-3.698-4.065-8.725-.66-5.027.087-9.272 1.67-9.48 1.584-.208 3.403 3.698 4.065 8.726.66 5.027-.087 9.27-1.67 9.48"/></g><g filter="url(#g)" opacity=".3" style="mix-blend-mode:multiply"><path fill="#FF9C11" d="M23.705 35.72c-.82-.22-.272-4.92 1.222-10.499 1.495-5.578 3.371-9.922 4.19-9.703s.273 4.92-1.221 10.499c-1.495 5.578-3.371 9.922-4.19 9.702"/></g><path fill="#FFFDF9" d="M37.592 29.005q-.777-1.69-2.89-2.74 3.183-.795 3.642-4.353.177-1.287-.192-2.348a4.5 4.5 0 0 0-1.233-1.854 9 9 0 0 0-1.961-1.359 17.5 17.5 0 0 0-2.576-1.048l1.066-4.62a.2.2 0 0 0-.15-.24l-2.552-.59a.2.2 0 0 0-.24.151L29.47 14.49q-.765-.176-2.34-.5l1.045-4.524a.2.2 0 0 0-.15-.24l-2.553-.59a.2.2 0 0 0-.24.15l-1.067 4.62a68 68 0 0 1-1.858-.408l-4.047-.955-.678 2.939a.2.2 0 0 0 .15.24l1.926.445q1.452.335 1.4 1.692l-1.266 5.484-.004.01v.01l-1.773 7.681q-.378.939-1.334.72l-1.938-.448a.2.2 0 0 0-.237.137l-.925 3.052a.2.2 0 0 0 .146.253l3.256.758q.362.084 1.048.252.685.168 1.03.248l-1.08 4.677a.2.2 0 0 0 .15.24l2.553.59a.2.2 0 0 0 .24-.15l1.067-4.62q.798.204 2.327.557l-1.062 4.6a.2.2 0 0 0 .15.241l2.552.59a.2.2 0 0 0 .24-.151l1.08-4.677q1.585.285 2.847.355 1.261.07 2.474-.124 1.211-.192 2.11-.69.9-.496 1.627-1.416.725-.92 1.172-2.245.862-2.598.084-4.288M26.315 17.786a.357.357 0 0 1 .422-.268l1.45.308q.412.086 1.097.304.686.219 1.14.424.456.206.978.558.523.352.794.747.27.394.397.937t-.019 1.173a2.7 2.7 0 0 1-.397.935q-.272.4-.685.617-.412.216-.827.352-.413.137-1.008.14-.594.004-1.032-.017a8 8 0 0 1-1.076-.137 66 66 0 0 1-.964-.183 21 21 0 0 1-.889-.205l-.462-.114a.204.204 0 0 1-.15-.243zm5.11 14.525a2.8 2.8 0 0 1-.645.657 2.7 2.7 0 0 1-.887.398q-.526.141-1 .192a7.5 7.5 0 0 1-1.123.023 14 14 0 0 1-1.127-.089q-.48-.06-1.135-.181a25 25 0 0 1-1.935-.427l-.51-.126a.203.203 0 0 1-.15-.242l1.356-5.873a.41.41 0 0 1 .483-.307l.52.106q.759.155 1.236.266.478.11 1.306.362.828.25 1.375.498.546.247 1.17.642.622.396.964.837.34.44.504 1.042.164.6.004 1.29a2.6 2.6 0 0 1-.406.932"/><g filter="url(#h)" opacity=".61"><path stroke="#FEA432" stroke-width=".803" d="m34.585 25.777 1.7-1.4a4.01 4.01 0 0 0 1.43-3.61l-.22-1.714"/></g><g filter="url(#i)" opacity=".5"><path stroke="#fff" stroke-width=".803" d="m32.024 24.295.489-.623a4 4 0 0 0 .791-3.192l-.28-1.548"/></g><g filter="url(#j)" opacity=".5"><path stroke="#fff" stroke-width=".803" d="m31.113 33.572.606-.51a4 4 0 0 0 1.429-2.961l.044-1.574"/></g><g filter="url(#k)" opacity=".3"><path stroke="#FEA432" stroke-width=".401" d="m21.127 18.931.219-.664c.279-.845.2-1.768-.22-2.553"/></g><g filter="url(#l)" opacity=".3"><path stroke="#FEA432" stroke-width=".401" d="M17.029 32.564a3.03 3.03 0 0 0 1.73-1.622l.165-.374"/></g><g filter="url(#m)" opacity=".61"><path stroke="#FEA432" stroke-width=".803" d="m25.896 17.386-1.28 5.458"/></g><g filter="url(#n)" opacity=".34"><path stroke="#FEA432" stroke-width=".803" d="m31.525 18.592-4.77-1.482"/></g><g filter="url(#o)" opacity=".34"><path stroke="#FEA432" stroke-width=".803" d="m30.199 27.163-4.771-1.483"/></g><g filter="url(#p)" opacity=".3"><path stroke="#FEA432" stroke-width=".803" d="m18.07 40.474.854 1.28"/></g><g filter="url(#q)" opacity=".3"><path stroke="#FEA432" stroke-width=".803" d="m23.537 41.753.854 1.28"/></g><g filter="url(#r)" opacity=".5"><path stroke="#fff" stroke-width=".803" d="m22.356 16.565-3.432 14.214"/></g><g filter="url(#s)" opacity=".61"><path stroke="#FEA432" stroke-width=".803" d="m23.537 26.107-1.28 5.458"/></g><g filter="url(#t)"><path stroke="#FEA432" stroke-width=".401" d="m25.71 41.751 1.044-4.235"/></g><g filter="url(#u)" opacity=".61"><path stroke="#FEA432" stroke-width=".803" d="m32.824 36.779 2.532-2.116a4.01 4.01 0 0 0 1.408-3.583l-.345-2.73"/></g></g><defs><filter id="b" width="32.155" height="40.737" x="10.263" y="8.053" color-interpolation-filters="sRGB" filterUnits="userSpaceOnUse"><feFlood flood-opacity="0" result="BackgroundImageFix"/><feBlend in="SourceGraphic" in2="BackgroundImageFix" result="shape"/><feGaussianBlur result="effect1_foregroundBlur_482_1595" stdDeviation="1.606"/></filter><filter id="c" width="53.216" height="53.216" x="-.064" y="-.608" color-interpolation-filters="sRGB" filterUnits="userSpaceOnUse"><feFlood flood-opacity="0" result="BackgroundImageFix"/><feBlend in="SourceGraphic" in2="BackgroundImageFix" result="shape"/><feColorMatrix in="SourceAlpha" result="hardAlpha" values="0 0 0 0 0 0 0 0 0 0 0 0 0 0 0 0 0 0 127 0"/><feOffset dx="1.835" dy="1.835"/><feGaussianBlur stdDeviation=".459"/><feComposite in2="hardAlpha" k2="-1" k3="1" operator="arithmetic"/><feColorMatrix values="0 0 0 0 1 0 0 0 0 1 0 0 0 0 1 0 0 0 0.25 0"/><feBlend in2="shape" result="effect1_innerShadow_482_1595"/><feColorMatrix in="SourceAlpha" result="hardAlpha" values="0 0 0 0 0 0 0 0 0 0 0 0 0 0 0 0 0 0 127 0"/><feOffset dx="-1.835" dy="-1.835"/><feGaussianBlur stdDeviation=".459"/><feComposite in2="hardAlpha" k2="-1" k3="1" operator="arithmetic"/><feColorMatrix values="0 0 0 0 0 0 0 0 0 0 0 0 0 0 0 0 0 0 0.25 0"/><feBlend in2="effect1_innerShadow_482_1595" mode="overlay" result="effect2_innerShadow_482_1595"/></filter><filter id="e" width="38.578" height="47.159" x="7.052" y="4.842" color-interpolation-filters="sRGB" filterUnits="userSpaceOnUse"><feFlood flood-opacity="0" result="BackgroundImageFix"/><feBlend in="SourceGraphic" in2="BackgroundImageFix" result="shape"/><feGaussianBlur result="effect1_foregroundBlur_482_1595" stdDeviation="3.211"/></filter><filter id="f" width="10.23" height="22.235" x="30.381" y="16.482" color-interpolation-filters="sRGB" filterUnits="userSpaceOnUse"><feFlood flood-opacity="0" result="BackgroundImageFix"/><feBlend in="SourceGraphic" in2="BackgroundImageFix" result="shape"/><feGaussianBlur result="effect1_foregroundBlur_482_1595" stdDeviation="1.004"/></filter><filter id="g" width="10.189" height="24.231" x="21.317" y="13.503" color-interpolation-filters="sRGB" filterUnits="userSpaceOnUse"><feFlood flood-opacity="0" result="BackgroundImageFix"/><feBlend in="SourceGraphic" in2="BackgroundImageFix" result="shape"/><feGaussianBlur result="effect1_foregroundBlur_482_1595" stdDeviation="1.004"/></filter><filter id="h" width="7.833" height="11.099" x="32.322" y="16.995" color-interpolation-filters="sRGB" filterUnits="userSpaceOnUse"><feFlood flood-opacity="0" result="BackgroundImageFix"/><feBlend in="SourceGraphic" in2="BackgroundImageFix" result="shape"/><feGaussianBlur result="effect1_foregroundBlur_482_1595" stdDeviation="1.004"/></filter><filter id="i" width="6.076" height="9.697" x="29.701" y="16.853" color-interpolation-filters="sRGB" filterUnits="userSpaceOnUse"><feFlood flood-opacity="0" result="BackgroundImageFix"/><feBlend in="SourceGraphic" in2="BackgroundImageFix" result="shape"/><feGaussianBlur result="effect1_foregroundBlur_482_1595" stdDeviation="1.004"/></filter><filter id="j" width="6.752" height="9.377" x="28.848" y="26.509" color-interpolation-filters="sRGB" filterUnits="userSpaceOnUse"><feFlood flood-opacity="0" result="BackgroundImageFix"/><feBlend in="SourceGraphic" in2="BackgroundImageFix" result="shape"/><feGaussianBlur result="effect1_foregroundBlur_482_1595" stdDeviation="1.004"/></filter><filter id="k" width="4.789" height="7.389" x="18.929" y="13.612" color-interpolation-filters="sRGB" filterUnits="userSpaceOnUse"><feFlood flood-opacity="0" result="BackgroundImageFix"/><feBlend in="SourceGraphic" in2="BackgroundImageFix" result="shape"/><feGaussianBlur result="effect1_foregroundBlur_482_1595" stdDeviation="1.004"/></filter><filter id="l" width="6.162" height="6.28" x="14.953" y="28.48" color-interpolation-filters="sRGB" filterUnits="userSpaceOnUse"><feFlood flood-opacity="0" result="BackgroundImageFix"/><feBlend in="SourceGraphic" in2="BackgroundImageFix" result="shape"/><feGaussianBlur result="effect1_foregroundBlur_482_1595" stdDeviation="1.004"/></filter><filter id="m" width="6.076" height="9.656" x="22.217" y="15.287" color-interpolation-filters="sRGB" filterUnits="userSpaceOnUse"><feFlood flood-opacity="0" result="BackgroundImageFix"/><feBlend in="SourceGraphic" in2="BackgroundImageFix" result="shape"/><feGaussianBlur result="effect1_foregroundBlur_482_1595" stdDeviation="1.004"/></filter><filter id="n" width="9.023" height="6.263" x="24.628" y="14.719" color-interpolation-filters="sRGB" filterUnits="userSpaceOnUse"><feFlood flood-opacity="0" result="BackgroundImageFix"/><feBlend in="SourceGraphic" in2="BackgroundImageFix" result="shape"/><feGaussianBlur result="effect1_foregroundBlur_482_1595" stdDeviation="1.004"/></filter><filter id="o" width="9.023" height="6.263" x="23.302" y="23.29" color-interpolation-filters="sRGB" filterUnits="userSpaceOnUse"><feFlood flood-opacity="0" result="BackgroundImageFix"/><feBlend in="SourceGraphic" in2="BackgroundImageFix" result="shape"/><feGaussianBlur result="effect1_foregroundBlur_482_1595" stdDeviation="1.004"/></filter><filter id="p" width="3.127" height="3.331" x="16.934" y="39.448" color-interpolation-filters="sRGB" filterUnits="userSpaceOnUse"><feFlood flood-opacity="0" result="BackgroundImageFix"/><feBlend in="SourceGraphic" in2="BackgroundImageFix" result="shape"/><feGaussianBlur result="effect1_foregroundBlur_482_1595" stdDeviation=".401"/></filter><filter id="q" width="3.127" height="3.331" x="22.4" y="40.728" color-interpolation-filters="sRGB" filterUnits="userSpaceOnUse"><feFlood flood-opacity="0" result="BackgroundImageFix"/><feBlend in="SourceGraphic" in2="BackgroundImageFix" result="shape"/><feGaussianBlur result="effect1_foregroundBlur_482_1595" stdDeviation=".401"/></filter><filter id="r" width="8.227" height="18.417" x="16.526" y="14.463" color-interpolation-filters="sRGB" filterUnits="userSpaceOnUse"><feFlood flood-opacity="0" result="BackgroundImageFix"/><feBlend in="SourceGraphic" in2="BackgroundImageFix" result="shape"/><feGaussianBlur result="effect1_foregroundBlur_482_1595" stdDeviation="1.004"/></filter><filter id="s" width="6.076" height="9.656" x="19.859" y="24.008" color-interpolation-filters="sRGB" filterUnits="userSpaceOnUse"><feFlood flood-opacity="0" result="BackgroundImageFix"/><feBlend in="SourceGraphic" in2="BackgroundImageFix" result="shape"/><feGaussianBlur result="effect1_foregroundBlur_482_1595" stdDeviation="1.004"/></filter><filter id="t" width="5.449" height="8.346" x="23.507" y="35.46" color-interpolation-filters="sRGB" filterUnits="userSpaceOnUse"><feFlood flood-opacity="0" result="BackgroundImageFix"/><feBlend in="SourceGraphic" in2="BackgroundImageFix" result="shape"/><feGaussianBlur result="effect1_foregroundBlur_482_1595" stdDeviation="1.004"/></filter><filter id="u" width="8.645" height="12.802" x="30.56" y="26.292" color-interpolation-filters="sRGB" filterUnits="userSpaceOnUse"><feFlood flood-opacity="0" result="BackgroundImageFix"/><feBlend in="SourceGraphic" in2="BackgroundImageFix" result="shape"/><feGaussianBlur result="effect1_foregroundBlur_482_1595" stdDeviation="1.004"/></filter><linearGradient id="d" x1="26.544" x2="16.208" y1=".31" y2="49.984" gradientUnits="userSpaceOnUse"><stop stop-color="#FFB018"/><stop offset="1" stop-color="#FF7E05"/></linearGradient><clipPath id="a"><rect width="51.381" height="51.381" x=".854" y=".31" fill="#fff" rx="12.845"/></clipPath></defs></svg>