<svg id="trace" xmlns="http://www.w3.org/2000/svg" xmlns:xlink="http://www.w3.org/1999/xlink" viewBox="0 0 512 512"><defs><style>.cls-1{fill:url(#linear-gradient);}.cls-2{opacity:0.33;}.cls-3{fill:#fff;}</style><linearGradient id="linear-gradient" x1="9.8" y1="1.39" x2="583.7" y2="594.9" gradientUnits="userSpaceOnUse"><stop offset="0" stop-color="#ff9a45"/><stop offset="0.41" stop-color="#f6822f"/><stop offset="1" stop-color="#e65909"/></linearGradient></defs><rect class="cls-1" width="512" height="512" rx="90"/><path class="cls-2" d="M98.87,102.53h98.84c11.75-43,50.46-67.6,50.46-67.6s40.23,24.33,52.39,66.91c70.45-9.16,173.4,72,69.12,145.43,116.86,63.82,55.51,184.19-68,181.65-13.64,48.71-53.5,70.83-53.5,70.83s-34.51-18.39-49.77-70H100.94S137,410.26,137,394.5V136.13C137,115.67,98.87,102.53,98.87,102.53ZM248.52,212c-.25-.32-11.59,13.27-11.59,34.92,0,26.46,10.34,37.55,10.34,37.55,11.55-15.56,48.53-37.28,48.53-37.28S262.13,229.67,248.52,212Zm79.62,22.37c.48.18,48.73-29.63,34.91-57.55-16-32.34-62.76-37.88-62.76-37.88-2.49,27.1-33,56.17-33,56.17S287.25,219.44,328.14,234.32Zm-60.55,71.59s26.52,23,33.3,78.47c0,0,62-.22,72.94-42.55,13.62-52.51-46.45-79.52-46.45-79.52C286.83,277.5,267.59,305.91,267.59,305.91ZM248.17,63.2s-21.29,20-22.69,39.3h45.38C270,84.77,248.17,63.2,248.17,63.2Zm0,112.85s21.29-20.05,22.69-39.3H225.48C226.33,154.48,248.17,176.05,248.17,176.05Zm.35,292.84s21.29-20,22.69-39.3H225.83C226.67,447.33,248.52,468.89,248.52,468.89Zm0-144.48s-21.64,23.5-22.69,62.37h45.38C269.32,347.27,248.52,324.41,248.52,324.41Zm-18.51-19s-19.14-19.93-19.14-56.72c0-34.28,19.47-53.08,19.47-53.08-29.52-32.42-31.11-59.53-31.11-59.53s-22-2.7-22,13.68V372.73c0,14.72,21.61,14,21.61,14S201.21,347.54,230,305.46Z"/><path class="cls-3" d="M219.28,180.64c-18.38-20.19-25.69-37.06-28.72-47.61h26.63c13.66,30.71,48.76,62.22,82.15,77.89a100.72,100.72,0,0,1-15.87,9.22c-5.48,2.67-8.73,4.22-10.61,5.1-6.67-3.59-26.61-15.68-53.62-44.57Zm84.38-72.51A88.3,88.3,0,0,1,301.78,126c62.6,15.35,66.86,64.53,9.36,94-34.11,17.49-47,20.69-65.84,39.63a53.38,53.38,0,0,0,7.2,9.55c3,3.31,7.66,8.93,11,13,17.44-20.61,54.14-35.17,85.11-49.07C451,187.21,390.64,82.87,301,86.5A83.21,83.21,0,0,1,303.66,108.13ZM284.24,357.89c1.27-.18,2.37-.35,3.31-.53-14.87-56.26-29.58-58.76-52-89.46-15.25-28.46-8.51-51.16-5.12-59.24-2.64-2.42-6.29-5.86-9.76-9.33-3.66-3.66-6.6-6.75-8.74-9.06-22.77,30.22-15.46,71.28,3,95.42,18.49,23.65,36.26,29.54,44.51,73.56C264.9,359.17,276.94,358.88,284.24,357.89ZM89.88,414.73l85.36-.19a139.81,139.81,0,0,1-.55-44.43c-5-1.52-8.5-4.74-8.5-12.41V134.79c1.33-16.37,12.08-13.47,50.09-13.47,20,0,20.13.49,30.41.43a87.62,87.62,0,0,0,1.7-17.48,79.32,79.32,0,0,0-1.81-16.79H235.49c-27.56.09-116.77,0-147.68,0,0,0,38.15,13.13,38.15,33.59V379.48C126,395.24,89.88,414.73,89.88,414.73Zm278-176.57c-3.49,1.86-10.66,5.31-24.83,11-6,2.42-10.53,4.57-13.48,6.09,45.67,25.85,54.82,96.74-15.92,111-19.92,5.78-60.77,5.56-85.92,5.39-.62,2.26-1.92,8.54-1.68,21.59.23,12.81,2.14,19.56,2.67,21.21h62.4C412.18,417,475.62,302.8,367.83,238.16ZM217.31,75.88c5.87-15.34,19.8-27.7,19.8-27.7,26,20.16,34.76,75.47,7.7,104.65a101.39,101.39,0,0,0,9.87,11.62,87.51,87.51,0,0,0,9.06,7.7C317.29,112.75,283.37,49,237.11,19.91c0,0-32.08,19.47-46.53,56Zm39.9,350.48c-6.07,15.07-19.76,27.51-19.76,27.51-25.94-23.17-27.92-56.85-22-91.13h0c2.27-20.17,9-33.95,14.49-42.57a66.77,66.77,0,0,0-6.06-6.62c-3.18-3.08-8.14-8.31-11.73-12.15-42.39,70.15-32.6,147.59,25,183.32,0,0,33.32-17.58,49.34-58.36Z"/></svg>