<svg viewBox="0 0 17 16" fill="none" xmlns="http://www.w3.org/2000/svg">
<g filter="url(#filter0_i_482_2866)">
<path d="M16.2304 6.53868C16.2147 6.45947 16.1822 6.38456 16.135 6.31904C16.0878 6.25353 16.0271 6.19894 15.9569 6.15899L13.8595 4.96368L13.851 2.59977C13.8508 2.51836 13.8329 2.43797 13.7985 2.36416C13.7641 2.29036 13.7142 2.22488 13.6521 2.17227C12.8912 1.5287 12.0151 1.03551 11.0702 0.718912C10.9958 0.693726 10.9169 0.684406 10.8387 0.691551C10.7604 0.698696 10.6846 0.722148 10.616 0.760397L8.50026 1.94305L6.38244 0.758287C6.31379 0.719823 6.23782 0.696194 6.15946 0.688927C6.0811 0.68166 6.00208 0.690917 5.92752 0.7161C4.9832 1.03473 4.108 1.52983 3.34846 2.17508C3.28642 2.22762 3.23651 2.29298 3.20216 2.36666C3.1678 2.44034 3.14983 2.52059 3.14947 2.60188L3.13893 4.9679L1.04151 6.16321C0.971335 6.20316 0.910587 6.25774 0.863391 6.32326C0.816196 6.38878 0.783658 6.46369 0.76799 6.5429C0.576034 7.5075 0.576034 8.50048 0.76799 9.46508C0.783658 9.54429 0.816196 9.6192 0.863391 9.68472C0.910587 9.75023 0.971335 9.80482 1.04151 9.84477L3.13893 11.0401L3.14737 13.4047C3.14762 13.4861 3.16554 13.5665 3.1999 13.6403C3.23425 13.7141 3.28422 13.7796 3.34635 13.8322C4.10718 14.4758 4.98333 14.969 5.92822 15.2856C6.00263 15.3107 6.0815 15.3201 6.15973 15.3129C6.23796 15.3058 6.31383 15.2823 6.38244 15.2441L8.50026 14.0579L10.6181 15.2427C10.7019 15.2894 10.7963 15.3136 10.8923 15.313C10.9537 15.313 11.0147 15.303 11.073 15.2834C12.0171 14.965 12.8922 14.4704 13.6521 13.8259C13.7141 13.7733 13.764 13.708 13.7984 13.6343C13.8327 13.5606 13.8507 13.4804 13.851 13.3991L13.8616 11.0331L15.959 9.83774C16.0292 9.79779 16.0899 9.7432 16.1371 9.67769C16.1843 9.61217 16.2169 9.53726 16.2325 9.45805C16.4234 8.49422 16.4227 7.50223 16.2304 6.53868ZM8.50026 10.813C7.944 10.813 7.40023 10.648 6.93771 10.339C6.4752 10.0299 6.11472 9.59069 5.90184 9.07677C5.68897 8.56285 5.63328 7.99735 5.7418 7.45178C5.85032 6.90621 6.11818 6.40507 6.51152 6.01174C6.90485 5.6184 7.40599 5.35054 7.95156 5.24202C8.49714 5.13349 9.06264 5.18919 9.57655 5.40206C10.0905 5.61493 10.5297 5.97542 10.8388 6.43793C11.1478 6.90045 11.3128 7.44421 11.3128 8.00047C11.3128 8.7464 11.0164 9.46177 10.489 9.98921C9.96155 10.5167 9.24618 10.813 8.50026 10.813Z" fill="#ED7300"/>
</g>
<defs>
<filter id="filter0_i_482_2866" x="0.624023" y="0.686523" width="15.7512" height="17.3287" filterUnits="userSpaceOnUse" color-interpolation-filters="sRGB">
<feFlood flood-opacity="0" result="BackgroundImageFix"/>
<feBlend mode="normal" in="SourceGraphic" in2="BackgroundImageFix" result="shape"/>
<feColorMatrix in="SourceAlpha" type="matrix" values="0 0 0 0 0 0 0 0 0 0 0 0 0 0 0 0 0 0 127 0" result="hardAlpha"/>
<feOffset dy="2.7"/>
<feGaussianBlur stdDeviation="1.35"/>
<feComposite in2="hardAlpha" operator="arithmetic" k2="-1" k3="1"/>
<feColorMatrix type="matrix" values="0 0 0 0 1 0 0 0 0 1 0 0 0 0 1 0 0 0 0.5 0"/>
<feBlend mode="overlay" in2="shape" result="effect1_innerShadow_482_2866"/>
</filter>
</defs>
</svg>
