<svg viewBox="0 0 19 18" fill="none" xmlns="http://www.w3.org/2000/svg">
<path d="M15.3333 4.55547H4.22221C4.07487 4.55547 3.93356 4.49694 3.82937 4.39276C3.72518 4.28857 3.66665 4.14726 3.66665 3.99992C3.66665 3.85258 3.72518 3.71127 3.82937 3.60708C3.93356 3.50289 4.07487 3.44436 4.22221 3.44436H13.6667C13.814 3.44436 13.9553 3.38583 14.0595 3.28164C14.1637 3.17746 14.2222 3.03615 14.2222 2.88881C14.2222 2.74147 14.1637 2.60016 14.0595 2.49597C13.9553 2.39178 13.814 2.33325 13.6667 2.33325H4.22221C3.78018 2.33325 3.35626 2.50885 3.0437 2.82141C2.73114 3.13397 2.55554 3.55789 2.55554 3.99992V12.8888C2.55554 13.3308 2.73114 13.7548 3.0437 14.0673C3.35626 14.3799 3.78018 14.5555 4.22221 14.5555H15.3333C15.628 14.5555 15.9106 14.4384 16.119 14.23C16.3274 14.0217 16.4444 13.739 16.4444 13.4444V5.66659C16.4444 5.3719 16.3274 5.08929 16.119 4.88091C15.9106 4.67254 15.628 4.55547 15.3333 4.55547ZM12.8333 10.111C12.6685 10.111 12.5074 10.0622 12.3703 9.97059C12.2333 9.87902 12.1265 9.74887 12.0634 9.5966C12.0003 9.44433 11.9838 9.27677 12.016 9.11512C12.0482 8.95347 12.1275 8.80498 12.2441 8.68844C12.3606 8.5719 12.5091 8.49253 12.6707 8.46038C12.8324 8.42822 13 8.44472 13.1522 8.5078C13.3045 8.57087 13.4346 8.67768 13.5262 8.81472C13.6178 8.95176 13.6667 9.11288 13.6667 9.2777C13.6667 9.49871 13.5789 9.71067 13.4226 9.86695C13.2663 10.0232 13.0543 10.111 12.8333 10.111Z" fill="currentColor"/>
</svg>
