<svg width="256" height="256" viewBox="0 0 256 256" fill="none" xmlns="http://www.w3.org/2000/svg">
<rect width="256" height="256" fill="url(#paint0_linear_185_2)"/>
<g filter="url(#filter0_di_185_2)">
<path d="M187.278 149.319C184.696 143.71 179.897 139.158 172.88 135.667C183.452 133.026 189.498 125.797 191.025 113.981C191.61 109.703 191.291 105.805 190.064 102.28C188.837 98.7543 186.793 95.6757 183.922 93.0411C181.055 90.4047 177.795 88.1491 174.152 86.2719C170.508 84.3944 166.229 82.6541 161.317 81.0525L166.856 57.0595L162.37 50.9931L152.195 53.6747L146.81 77.0012C144.271 76.415 140.385 75.5846 135.151 74.5101L140.58 50.9933L136.138 44.5209L125.917 47.608L120.378 71.6011C118.268 71.1811 115.183 70.5028 111.121 69.565L90.9588 64.8091L83.1363 74.0972L84.7982 78.9238L97.9214 82.8636C102.746 83.9773 105.072 86.788 104.9 91.294L98.5918 118.62C99.2274 118.767 99.7271 118.916 100.094 119.068L98.5696 118.716L89.7336 156.989C88.4792 160.108 86.2648 161.303 83.0908 160.57L72.5238 158.131L63.0977 168.644L66.2733 174.194L84.5915 179.269C85.7977 179.548 87.5384 179.966 89.8178 180.523C92.0951 181.082 93.8044 181.494 94.9473 181.758L85.3274 199.599L89.3422 206.036L104.008 209.422L109.547 185.429C112.197 186.109 116.061 187.034 121.139 188.206L111.791 206.036L115.622 212.103L130.284 215.488L135.889 191.21C141.153 192.158 145.88 192.751 150.07 192.98C154.263 193.21 158.372 193.007 162.397 192.364C166.422 191.723 169.929 190.576 172.917 188.926C175.906 187.278 178.603 184.924 181.016 181.871C183.423 178.815 185.372 175.087 186.856 170.682C189.721 162.052 189.86 154.93 187.278 149.319ZM131.48 91.7114C131.925 91.814 133.182 92.0874 135.252 92.5316C137.324 92.9754 139.044 93.3396 140.416 93.6226C141.788 93.9064 143.611 94.4107 145.884 95.1362C148.157 95.8615 150.05 96.5665 151.563 97.2495C153.076 97.9326 154.702 98.8598 156.436 100.029C158.174 101.198 159.491 102.439 160.39 103.749C161.292 105.061 161.952 106.618 162.37 108.419C162.791 110.221 162.759 112.169 162.276 114.263C161.865 116.041 161.206 117.594 160.299 118.923C159.392 120.251 158.251 121.275 156.883 121.995C155.514 122.716 154.139 123.302 152.765 123.752C151.392 124.204 149.715 124.436 147.741 124.447C145.767 124.46 144.052 124.432 142.598 124.363C141.143 124.294 139.357 124.067 137.24 123.678C135.123 123.289 133.521 122.987 132.435 122.769C131.348 122.551 129.873 122.211 128.007 121.747C126.141 121.283 125.051 121.014 124.733 120.941L131.481 91.7113L131.48 91.7114ZM156.549 165.792C155.607 167.113 154.537 168.204 153.337 169.064C152.135 169.921 150.661 170.585 148.916 171.05C147.171 171.517 145.509 171.834 143.933 172.005C142.355 172.178 140.49 172.213 138.341 172.119C136.188 172.024 134.318 171.875 132.724 171.675C131.133 171.475 129.248 171.173 127.067 170.771C124.889 170.366 123.194 170.026 121.989 169.747C120.783 169.469 119.263 169.1 117.429 168.644C115.594 168.189 114.425 167.902 113.917 167.785L121.347 135.603C121.854 135.72 123.369 136.037 125.891 136.551C128.414 137.066 130.467 137.509 132.054 137.875C133.641 138.241 135.81 138.841 138.559 139.678C141.307 140.511 143.59 141.338 145.408 142.159C147.223 142.98 149.165 144.045 151.237 145.36C153.306 146.673 154.908 148.063 156.042 149.528C157.174 150.995 158.011 152.723 158.552 154.721C159.096 156.718 159.103 158.859 158.575 161.145C158.164 162.924 157.49 164.47 156.549 165.792Z" fill="#F3F0EB" fill-opacity="0.89" shape-rendering="crispEdges"/>
</g>
<g filter="url(#filter1_i_185_2)">
<path d="M183.044 142.968C180.462 137.359 175.663 132.807 168.646 129.316C179.217 126.675 185.264 119.446 186.79 107.63C187.376 103.352 187.057 99.4537 185.83 95.9289C184.603 92.4031 182.559 89.3245 179.688 86.6899C176.821 84.0535 173.561 81.7979 169.918 79.9207C166.274 78.0433 161.995 76.3029 157.083 74.7014L162.622 50.7083L147.961 47.3235L142.576 70.65C140.037 70.0639 136.151 69.2334 130.917 68.1589L136.346 44.6421L121.683 41.2569L116.144 65.2499C114.034 64.8299 110.949 64.1516 106.887 63.2138L86.7247 58.4579L83.1197 74.0727L93.6873 76.5124C98.5114 77.6261 100.838 80.4368 100.666 84.9428L94.3576 112.269C94.9932 112.415 95.4929 112.565 95.8595 112.717L94.3355 112.365L85.4995 150.638C84.2451 153.757 82.0307 154.952 78.8566 154.219L68.2897 151.779L63.0979 168.901L80.3574 172.918C81.5636 173.196 83.3043 173.615 85.5837 174.172C87.8609 174.731 89.5703 175.143 90.7132 175.406L85.1081 199.685L99.7735 203.07L105.313 179.078C107.963 179.758 111.827 180.683 116.905 181.855L111.388 205.752L126.05 209.137L131.655 184.859C136.919 185.807 141.646 186.399 145.836 186.629C150.029 186.859 154.138 186.656 158.163 186.013C162.188 185.372 165.695 184.225 168.683 182.575C171.671 180.927 174.369 178.573 176.782 175.519C179.189 172.464 181.138 168.736 182.621 164.33C185.487 155.701 185.626 148.579 183.044 142.968ZM127.246 85.3602C127.691 85.4628 128.948 85.7362 131.018 86.1805C133.09 86.6243 134.81 86.9884 136.182 87.2714C137.554 87.5552 139.377 88.0596 141.65 88.7851C143.923 89.5103 145.816 90.2153 147.329 90.8983C148.842 91.5814 150.468 92.5086 152.202 93.6778C153.94 94.8471 155.257 96.0876 156.156 97.3982C157.058 98.7093 157.718 100.266 158.136 102.068C158.557 103.87 158.525 105.818 158.042 107.912C157.631 109.689 156.972 111.243 156.065 112.572C155.158 113.9 154.017 114.924 152.649 115.644C151.28 116.364 149.905 116.95 148.531 117.401C147.158 117.852 145.481 118.084 143.507 118.096C141.533 118.109 139.818 118.08 138.364 118.012C136.908 117.943 135.123 117.715 133.006 117.327C130.889 116.938 129.287 116.636 128.201 116.418C127.114 116.2 125.639 115.86 123.773 115.396C121.907 114.932 120.817 114.663 120.499 114.589L127.247 85.3601L127.246 85.3602ZM152.315 159.441C151.373 160.762 150.303 161.853 149.103 162.713C147.901 163.57 146.427 164.233 144.682 164.699C142.937 165.166 141.275 165.483 139.699 165.654C138.12 165.827 136.256 165.862 134.107 165.768C131.954 165.673 130.084 165.523 128.49 165.324C126.899 165.124 125.014 164.822 122.833 164.42C120.654 164.015 118.96 163.675 117.755 163.396C116.548 163.118 115.029 162.749 113.195 162.293C111.36 161.838 110.191 161.551 109.683 161.434L117.112 129.251C117.62 129.368 119.134 129.686 121.657 130.2C124.18 130.715 126.233 131.157 127.82 131.524C129.406 131.89 131.575 132.49 134.325 133.326C137.073 134.16 139.356 134.987 141.173 135.807C142.989 136.628 144.931 137.694 147.002 139.009C149.072 140.322 150.674 141.711 151.807 143.176C152.94 144.643 153.777 146.372 154.318 148.369C154.862 150.366 154.869 152.508 154.341 154.794C153.93 156.573 153.256 158.119 152.315 159.441Z" fill="white"/>
</g>
<g filter="url(#filter2_f_185_2)">
<path d="M169 125.5L177.472 118.523C182.779 114.152 185.469 107.361 184.595 100.542L183.5 92" stroke="#FEA432" stroke-width="2"/>
</g>
<g filter="url(#filter3_f_185_2)">
<path d="M163 184L175.614 173.457C180.84 169.089 183.484 162.362 182.63 155.605L180.912 142" stroke="#FEA432" stroke-width="2"/>
</g>
<defs>
<filter id="filter0_di_185_2" x="39.0977" y="24.5205" width="176.211" height="218.968" filterUnits="userSpaceOnUse" color-interpolation-filters="sRGB">
<feFlood flood-opacity="0" result="BackgroundImageFix"/>
<feColorMatrix in="SourceAlpha" type="matrix" values="0 0 0 0 0 0 0 0 0 0 0 0 0 0 0 0 0 0 127 0" result="hardAlpha"/>
<feOffset dy="4"/>
<feGaussianBlur stdDeviation="12"/>
<feComposite in2="hardAlpha" operator="out"/>
<feColorMatrix type="matrix" values="0 0 0 0 0.758333 0 0 0 0 0.399334 0 0 0 0 0.0442361 0 0 0 1 0"/>
<feBlend mode="normal" in2="BackgroundImageFix" result="effect1_dropShadow_185_2"/>
<feBlend mode="normal" in="SourceGraphic" in2="effect1_dropShadow_185_2" result="shape"/>
<feColorMatrix in="SourceAlpha" type="matrix" values="0 0 0 0 0 0 0 0 0 0 0 0 0 0 0 0 0 0 127 0" result="hardAlpha"/>
<feOffset/>
<feGaussianBlur stdDeviation="2.5"/>
<feComposite in2="hardAlpha" operator="arithmetic" k2="-1" k3="1"/>
<feColorMatrix type="matrix" values="0 0 0 0 1 0 0 0 0 0.639216 0 0 0 0 0.254902 0 0 0 1 0"/>
<feBlend mode="normal" in2="shape" result="effect2_innerShadow_185_2"/>
</filter>
<filter id="filter1_i_185_2" x="63.0979" y="41.2568" width="124.977" height="167.88" filterUnits="userSpaceOnUse" color-interpolation-filters="sRGB">
<feFlood flood-opacity="0" result="BackgroundImageFix"/>
<feBlend mode="normal" in="SourceGraphic" in2="BackgroundImageFix" result="shape"/>
<feColorMatrix in="SourceAlpha" type="matrix" values="0 0 0 0 0 0 0 0 0 0 0 0 0 0 0 0 0 0 127 0" result="hardAlpha"/>
<feOffset dx="1"/>
<feGaussianBlur stdDeviation="2"/>
<feComposite in2="hardAlpha" operator="arithmetic" k2="-1" k3="1"/>
<feColorMatrix type="matrix" values="0 0 0 0 0.964706 0 0 0 0 0.803922 0 0 0 0 0.631373 0 0 0 1 0"/>
<feBlend mode="normal" in2="shape" result="effect1_innerShadow_185_2"/>
</filter>
<filter id="filter2_f_185_2" x="154.364" y="77.873" width="45.3934" height="62.3984" filterUnits="userSpaceOnUse" color-interpolation-filters="sRGB">
<feFlood flood-opacity="0" result="BackgroundImageFix"/>
<feBlend mode="normal" in="SourceGraphic" in2="BackgroundImageFix" result="shape"/>
<feGaussianBlur stdDeviation="7" result="effect1_foregroundBlur_185_2"/>
</filter>
<filter id="filter3_f_185_2" x="148.359" y="127.875" width="49.4296" height="70.8926" filterUnits="userSpaceOnUse" color-interpolation-filters="sRGB">
<feFlood flood-opacity="0" result="BackgroundImageFix"/>
<feBlend mode="normal" in="SourceGraphic" in2="BackgroundImageFix" result="shape"/>
<feGaussianBlur stdDeviation="7" result="effect1_foregroundBlur_185_2"/>
</filter>
<linearGradient id="paint0_linear_185_2" x1="128" y1="0" x2="76.5" y2="247.5" gradientUnits="userSpaceOnUse">
<stop stop-color="#FFBE40"/>
<stop offset="1" stop-color="#FF8D23"/>
</linearGradient>
</defs>
</svg>
