<svg width="256" height="256" clip-rule="evenodd" fill="#FFF" stroke-linejoin="round" stroke-miterlimit="2" viewBox="0 0 560 400" xmlns="http://www.w3.org/2000/svg" xmlns:xlink="http://www.w3.org/1999/xlink">
    <rect x="0" y="-80" width="560" height="560" fill="url(#paint0_linear_1649_7577)"/>
    <defs>
        <pattern id="pattern0" patternContentUnits="objectBoundingBox" width="1" height="1">
            <use xlink:href="#image0_1649_7577" transform="scale(0.00242131 0.00215112)"/>
        </pattern>
        <linearGradient id="paint0_linear_1649_7577" x1="128" y1="0" x2="76.5" y2="247.5" gradientUnits="userSpaceOnUse">
            <stop stop-color="#c6c6fa"/>
            <stop offset="1" stop-color="#7372ef"/>
        </linearGradient>
    </defs>
    <path d="m1726.6 681.4-129.8-230.6 251.5.1c6.7 0 14.6 4.5 18.2 10.5 4 6.6 24.4 40.3 49 80.7 29.4 48.4 64.5 106.3 84.6 139.3zm-465.2 1396.6c-6.1 10.9-14 10.9-16.6 10.9h-102.8c-54.4 0-117.1-.1-154.5-.1l399.6-717.4c10.4-18.5 3.7-42-14.8-52.3-5.7-3.2-12.1-4.9-18.6-4.9l-681 .9-135.5-234.5h992.6c.6 0 1.1-.2 1.6-.2 2.2-.1 4.4-.4 6.6-.9 1.6-.4 3.3-.9 4.8-1.5.8-.3 1.7-.7 2.5-1 7.7-3.3 14.1-9.1 18.2-16.5l163.5-302.3h270zm-340.3-27.3c-8.7-14.3-20-32.9-32.3-53.1-41.3-68.2-94.2-155.5-100.2-165.1-2-3.2-2.9-11.1 1.3-18.7 9.6-17.2 190.4-343 234.5-422.4l264.1-.3zm-450.3-448.9-131.3-233.2 132.3-248 132.7 229.7c-41.2 77.7-105.6 198.8-133.7 251.5zm-67.6 36.3h-251.6c-6.5 0-14.4-4.6-18-10.5l-42.7-70.4c-30.5-50.2-69.4-114.3-90.9-149.7h273.4zm335.4-1627.1c6.1-11 14-11 16.5-11h258.3l-400.7 717.4c-.3.6-.5 1.2-.8 1.9-.6 1.2-1.1 2.4-1.6 3.7-.4 1.2-.8 2.4-1.1 3.7s-.6 2.3-.8 3.5c-.2 1.4-.4 2.8-.4 4.3 0 .6-.2 1.2-.2 1.9 0 .5.1.9.2 1.4 0 1.4.2 2.8.4 4.2.1 1.2.3 2.3.6 3.5s.7 2.4 1.1 3.6.8 2.3 1.3 3.5 1.1 2.2 1.7 3.2 1.2 2.1 2 3.1c.7 1 1.5 2 2.4 2.9.8.9 1.6 1.8 2.5 2.7s1.8 1.5 2.8 2.3c1.1.8 2.2 1.6 3.3 2.3.4.3.8.6 1.2.9s.9.3 1.4.6c2 1 4.1 1.9 6.2 2.5.8.2 1.5.5 2.3.7 2.8.7 5.7 1.1 8.7 1.1h17.4l663.9-.9c17.6 30.5 50.4 88 78.3 136.9 21.4 37.6 39.2 68.6 53.2 93h-988c-.4 0-.8.1-1.3.2-13.9.1-26.6 7.9-33.2 20.1l-163.6 306.6h-269.5c117.7-211.5 727.6-1305.8 735.5-1319.8zm340.8 28.1 24 39.5c42.1 69.5 101.6 167.6 107.9 177.8 2 3.2 2.9 11.1-1.3 18.7l-234.4 422.2-264 .3zm449.7 447.8 131.3 233.3-133.9 247.5c-16-27.8-35.8-62.6-54.4-95.2-36.8-64.4-63.6-111.3-78.7-137.5 28.7-52.2 104.1-190.5 135.7-248.1z" transform="matrix(.19 0 0 .19 100 5)"/>
</svg>
