<svg width="256" height="256" viewBox="0 0 256 256" fill="none" xmlns="http://www.w3.org/2000/svg">
<g opacity="0.6" filter="url(#filter0_f_117_10238)">
<path d="M187.061 159.383C184.479 153.774 179.68 149.223 172.663 145.731C183.235 143.091 189.281 135.862 190.808 124.045C191.393 119.768 191.074 115.869 189.847 112.345C188.62 108.819 186.576 105.74 183.705 103.106C180.838 100.469 177.578 98.2136 173.935 96.3363C170.291 94.4589 166.012 92.7185 161.1 91.117L166.639 67.1239L162.153 61.0575L151.978 63.7392L146.593 87.0656C144.054 86.4795 140.168 85.649 134.934 84.5746L140.363 61.0577L135.921 54.5854L125.7 57.6725L120.161 81.6655C118.051 81.2455 114.966 80.5672 110.904 79.6294L90.7418 74.8735L82.9193 84.1617L84.5812 88.9883L97.7044 92.928C102.528 94.0418 104.855 96.8525 104.683 101.358L98.3747 128.684C99.0103 128.831 99.51 128.981 99.8766 129.132L98.3526 128.78L89.5166 167.053C88.2622 170.173 86.0478 171.367 82.8737 170.635L72.3068 168.195L62.8806 178.709L66.0563 184.259L84.3745 189.334C85.5807 189.612 87.3214 190.031 89.6008 190.587C91.878 191.147 93.5874 191.558 94.7302 191.822L85.1103 209.663L89.1252 216.1L103.791 219.486L109.33 195.493C111.98 196.174 115.844 197.099 120.922 198.271L111.574 216.1L115.405 222.168L130.067 225.552L135.672 201.274C140.936 202.223 145.663 202.815 149.853 203.045C154.046 203.274 158.155 203.072 162.18 202.429C166.205 201.788 169.712 200.641 172.7 198.99C175.688 197.343 178.386 194.989 180.799 191.935C183.206 188.88 185.155 185.151 186.639 180.746C189.504 172.117 189.643 164.995 187.061 159.383ZM131.263 101.776C131.708 101.878 132.965 102.152 135.035 102.596C137.107 103.04 138.827 103.404 140.199 103.687C141.571 103.971 143.394 104.475 145.667 105.201C147.94 105.926 149.833 106.631 151.346 107.314C152.859 107.997 154.485 108.924 156.219 110.093C157.957 111.263 159.274 112.503 160.173 113.814C161.075 115.125 161.735 116.682 162.153 118.484C162.574 120.285 162.542 122.233 162.059 124.328C161.648 126.105 160.989 127.658 160.082 128.987C159.175 130.315 158.034 131.339 156.666 132.059C155.297 132.78 153.922 133.366 152.548 133.817C151.175 134.268 149.498 134.5 147.524 134.512C145.55 134.524 143.835 134.496 142.381 134.427C140.926 134.359 139.14 134.131 137.023 133.742C134.906 133.353 133.304 133.051 132.218 132.834C131.131 132.616 129.656 132.275 127.79 131.811C125.924 131.348 124.834 131.078 124.516 131.005L131.264 101.776L131.263 101.776ZM156.332 175.856C155.39 177.177 154.32 178.268 153.12 179.128C151.918 179.986 150.444 180.649 148.699 181.114C146.954 181.582 145.292 181.899 143.716 182.07C142.137 182.243 140.273 182.278 138.124 182.184C135.971 182.088 134.101 181.939 132.507 181.739C130.916 181.54 129.031 181.238 126.85 180.835C124.672 180.43 122.977 180.09 121.772 179.812C120.566 179.533 119.046 179.164 117.212 178.708C115.377 178.253 114.208 177.967 113.7 177.849L121.129 145.667C121.637 145.784 123.152 146.101 125.674 146.615C128.197 147.13 130.25 147.573 131.837 147.939C133.424 148.306 135.592 148.905 138.342 149.742C141.09 150.575 143.373 151.402 145.191 152.223C147.006 153.044 148.948 154.11 151.019 155.425C153.089 156.738 154.691 158.127 155.825 159.592C156.957 161.059 157.794 162.788 158.335 164.785C158.879 166.782 158.886 168.923 158.358 171.209C157.947 172.988 157.273 174.535 156.332 175.856Z" fill="#FF6C00"/>
</g>
<path d="M0 0H256V256H0V0Z" fill="url(#paint0_linear_117_10238)"/>
<g opacity="0.6" filter="url(#filter1_f_117_10238)">
<path d="M187.061 159.383C184.479 153.774 179.68 149.223 172.663 145.731C183.235 143.091 189.281 135.862 190.808 124.045C191.393 119.768 191.074 115.869 189.847 112.345C188.62 108.819 186.576 105.74 183.705 103.106C180.838 100.469 177.578 98.2136 173.935 96.3363C170.291 94.4589 166.012 92.7185 161.1 91.117L166.639 67.1239L162.153 61.0575L151.978 63.7392L146.593 87.0656C144.054 86.4795 140.168 85.649 134.934 84.5746L140.363 61.0577L135.921 54.5854L125.7 57.6725L120.161 81.6655C118.051 81.2455 114.966 80.5672 110.904 79.6294L90.7418 74.8735L82.9193 84.1617L84.5812 88.9883L97.7044 92.928C102.528 94.0418 104.855 96.8525 104.683 101.358L98.3747 128.684C99.0103 128.831 99.51 128.981 99.8766 129.132L98.3526 128.78L89.5166 167.053C88.2622 170.173 86.0478 171.367 82.8737 170.635L72.3068 168.195L62.8806 178.709L66.0563 184.259L84.3745 189.334C85.5807 189.612 87.3214 190.031 89.6008 190.587C91.878 191.147 93.5874 191.558 94.7302 191.822L85.1103 209.663L89.1252 216.1L103.791 219.486L109.33 195.493C111.98 196.174 115.844 197.099 120.922 198.271L111.574 216.1L115.405 222.168L130.067 225.552L135.672 201.274C140.936 202.223 145.663 202.815 149.853 203.045C154.046 203.274 158.155 203.072 162.18 202.429C166.205 201.788 169.712 200.641 172.7 198.99C175.688 197.343 178.386 194.989 180.799 191.935C183.206 188.88 185.155 185.151 186.639 180.746C189.504 172.117 189.643 164.995 187.061 159.383ZM131.263 101.776C131.708 101.878 132.965 102.152 135.035 102.596C137.107 103.04 138.827 103.404 140.199 103.687C141.571 103.971 143.394 104.475 145.667 105.201C147.94 105.926 149.833 106.631 151.346 107.314C152.859 107.997 154.485 108.924 156.219 110.093C157.957 111.263 159.274 112.503 160.173 113.814C161.075 115.125 161.735 116.682 162.153 118.484C162.574 120.285 162.542 122.233 162.059 124.328C161.648 126.105 160.989 127.658 160.082 128.987C159.175 130.315 158.034 131.339 156.666 132.059C155.297 132.78 153.922 133.366 152.548 133.817C151.175 134.268 149.498 134.5 147.524 134.512C145.55 134.524 143.835 134.496 142.381 134.427C140.926 134.359 139.14 134.131 137.023 133.742C134.906 133.353 133.304 133.051 132.218 132.834C131.131 132.616 129.656 132.275 127.79 131.811C125.924 131.348 124.834 131.078 124.516 131.005L131.264 101.776L131.263 101.776ZM156.332 175.856C155.39 177.177 154.32 178.268 153.12 179.128C151.918 179.986 150.444 180.649 148.699 181.114C146.954 181.582 145.292 181.899 143.716 182.07C142.137 182.243 140.273 182.278 138.124 182.184C135.971 182.088 134.101 181.939 132.507 181.739C130.916 181.54 129.031 181.238 126.85 180.835C124.672 180.43 122.977 180.09 121.772 179.812C120.566 179.533 119.046 179.164 117.212 178.708C115.377 178.253 114.208 177.967 113.7 177.849L121.129 145.667C121.637 145.784 123.152 146.101 125.674 146.615C128.197 147.13 130.25 147.573 131.837 147.939C133.424 148.306 135.592 148.905 138.342 149.742C141.09 150.575 143.373 151.402 145.191 152.223C147.006 153.044 148.948 154.11 151.019 155.425C153.089 156.738 154.691 158.127 155.825 159.592C156.957 161.059 157.794 162.788 158.335 164.785C158.879 166.782 158.886 168.923 158.358 171.209C157.947 172.988 157.273 174.535 156.332 175.856Z" fill="black" fill-opacity="0.29"/>
</g>
<path d="M187.06 149.384C184.478 143.774 179.679 139.223 172.662 135.732C183.234 133.091 189.281 125.862 190.807 114.045C191.392 109.768 191.073 105.87 189.847 102.345C188.619 98.819 186.575 95.7404 183.704 93.1057C180.837 90.4694 177.577 88.2138 173.934 86.3366C170.29 84.4591 166.011 82.7187 161.099 81.1172L166.538 57.5606C166.602 57.2829 166.544 56.9911 166.38 56.7584L162.277 50.9544L151.977 53.7394L146.592 77.0658C144.053 76.4797 140.167 75.6492 134.933 74.5748L140.262 51.4941C140.326 51.2166 140.269 50.9249 140.104 50.6923L135.86 44.6816L125.7 47.6727L120.16 71.6657C118.05 71.2457 114.965 70.5675 110.903 69.6296L90.7409 64.8737L83.5954 74.0075L84.905 78.9113C84.9968 79.2549 85.2641 79.5239 85.6072 79.6178L97.7035 82.9282C102.528 84.042 104.854 86.8527 104.683 91.3587L98.3739 118.684C99.0095 118.831 99.5092 118.981 99.8757 119.132L98.3517 118.781L89.5157 157.053C88.2613 160.173 86.0469 161.368 82.8729 160.635L72.306 158.195L63.4635 168.6L66.0554 174.259L84.4304 179.024C85.6366 179.302 87.3066 179.798 89.5859 180.354C91.8632 180.914 93.5866 181.558 94.7294 181.822L85.364 199.306L88.9085 205.711C89.0459 205.959 89.2822 206.137 89.5585 206.201L102.815 209.261C103.353 209.386 103.89 209.05 104.015 208.512L109.329 185.494C111.979 186.174 115.844 187.099 120.921 188.271L111.729 205.522L115.189 211.778C115.326 212.026 115.562 212.204 115.839 212.268L129.091 215.328C129.629 215.452 130.166 215.116 130.291 214.578L135.671 191.274C140.935 192.223 145.662 192.815 149.852 193.045C154.045 193.275 158.154 193.072 162.179 192.429C166.204 191.788 169.711 190.641 172.699 188.991C175.688 187.343 178.385 184.989 180.798 181.935C183.206 178.88 185.154 175.152 186.638 170.746C189.503 162.117 189.642 154.995 187.06 149.384ZM131.766 91.8789C132.21 91.9815 132.964 92.152 135.034 92.5963C137.106 93.0401 138.826 93.4042 140.198 93.6873C141.57 93.971 143.393 94.4754 145.667 95.2009C147.939 95.9262 149.832 96.6311 151.345 97.3142C152.858 97.9972 154.485 98.9245 156.219 100.094C157.956 101.263 159.273 102.503 160.172 103.814C161.074 105.125 161.734 106.682 162.152 108.484C162.573 110.285 162.541 112.234 162.058 114.328C161.647 116.105 160.989 117.658 160.081 118.987C159.174 120.315 158.033 121.339 156.665 122.06C155.296 122.78 153.922 123.366 152.547 123.817C151.174 124.268 149.497 124.5 147.523 124.512C145.549 124.524 143.834 124.496 142.38 124.427C140.925 124.359 139.139 124.131 137.022 123.742C134.905 123.353 133.303 123.052 132.217 122.834C131.131 122.616 129.655 122.275 127.789 121.812C125.923 121.348 124.833 121.079 124.515 121.005L131.148 92.2754C131.212 91.9976 131.486 91.8216 131.766 91.8789ZM156.331 165.856C155.389 167.177 154.32 168.268 153.119 169.129C151.917 169.986 150.443 170.649 148.698 171.114C146.953 171.582 145.291 171.899 143.715 172.07C142.137 172.243 140.273 172.278 138.123 172.184C135.97 172.088 134.1 171.939 132.507 171.74C130.916 171.54 129.031 171.238 126.849 170.835C124.671 170.431 122.976 170.09 121.771 169.812C120.565 169.534 119.045 169.165 117.211 168.709C115.376 168.254 114.207 167.967 113.699 167.849L120.904 136.642C121.028 136.103 121.565 135.765 122.105 135.879C122.895 136.046 124.084 136.292 125.673 136.616C128.196 137.131 130.249 137.573 131.836 137.94C133.423 138.306 135.592 138.905 138.341 139.742C141.089 140.576 143.372 141.402 145.19 142.223C147.005 143.044 148.947 144.11 151.019 145.425C153.088 146.738 154.691 148.127 155.824 149.592C156.956 151.059 157.793 152.788 158.334 154.785C158.878 156.782 158.885 158.924 158.357 161.209C157.946 162.988 157.272 164.535 156.331 165.856Z" fill="#F6E4CD"/>
<g style="mix-blend-mode:multiply" opacity="0.3" filter="url(#filter2_f_117_10238)">
<ellipse cx="14.4082" cy="45.7432" rx="14.4082" ry="45.7432" transform="matrix(-0.99146 0.130413 0.130413 0.99146 180.916 88.7285)" fill="#FF9C11"/>
</g>
<g style="mix-blend-mode:multiply" opacity="0.3" filter="url(#filter3_f_117_10238)">
<ellipse cx="7.65574" cy="52.0995" rx="7.65574" ry="52.0995" transform="matrix(-0.965926 -0.258819 -0.258819 0.965926 148.215 77.7656)" fill="#FF9C11"/>
</g>
<path d="M183.043 142.968C180.462 137.359 175.662 132.807 168.645 129.316C179.217 126.675 185.264 119.446 186.79 107.63C187.376 103.352 187.056 99.4537 185.83 95.9289C184.603 92.4031 182.558 89.3245 179.688 86.6899C176.821 84.0535 173.561 81.7979 169.918 79.9207C166.274 78.0433 161.995 76.3029 157.083 74.7014L162.397 51.6827C162.521 51.1445 162.186 50.6076 161.647 50.4834L148.935 47.5485C148.397 47.4243 147.86 47.7598 147.736 48.2979L142.575 70.65C140.037 70.0639 136.15 69.2334 130.917 68.1589L136.121 45.6164C136.245 45.0783 135.91 44.5414 135.372 44.4171L122.657 41.4818C122.119 41.3576 121.582 41.6931 121.458 42.2312L116.144 65.2499C114.034 64.8299 110.948 64.1516 106.886 63.2138L86.7244 58.4579L83.3444 73.0983C83.2202 73.6364 83.5557 74.1734 84.0939 74.2976L93.6871 76.5124C98.5112 77.6261 100.837 80.4368 100.666 84.9428L94.3574 112.269L94.3352 112.32L94.3352 112.365L85.4992 150.638C84.2448 153.757 82.0304 154.952 78.8564 154.219L69.2002 151.99C68.6876 151.871 68.1709 152.17 68.0182 152.674L63.4075 167.879C63.2398 168.432 63.5747 169.012 64.1378 169.143L80.3572 172.918C81.5633 173.196 83.3041 173.615 85.5834 174.172C87.8607 174.731 89.5701 175.143 90.7129 175.406L85.3328 198.71C85.2086 199.248 85.5441 199.785 86.0822 199.91L98.7988 202.845C99.337 202.97 99.8739 202.634 99.9982 202.096L105.312 179.078C107.963 179.758 111.827 180.683 116.905 181.855L111.613 204.778C111.489 205.316 111.824 205.853 112.362 205.977L125.075 208.912C125.613 209.036 126.15 208.7 126.274 208.162L131.654 184.859C136.919 185.807 141.645 186.399 145.836 186.629C150.028 186.859 154.138 186.656 158.163 186.013C162.187 185.372 165.694 184.225 168.682 182.575C171.671 180.927 174.369 178.573 176.782 175.519C179.189 172.464 181.138 168.736 182.621 164.33C185.486 155.701 185.625 148.579 183.043 142.968ZM126.853 87.0719C127.07 86.1269 128.013 85.5321 128.96 85.7373C129.522 85.8588 130.208 86.0065 131.018 86.1804C133.089 86.6243 134.81 86.9884 136.182 87.2714C137.554 87.5552 139.376 88.0596 141.65 88.785C143.923 89.5103 145.816 90.2153 147.329 90.8983C148.842 91.5814 150.468 92.5086 152.202 93.6778C153.94 94.8471 155.257 96.0876 156.156 97.3982C157.058 98.7093 157.718 100.266 158.136 102.068C158.557 103.87 158.525 105.818 158.041 107.912C157.631 109.689 156.972 111.243 156.064 112.572C155.158 113.9 154.017 114.924 152.648 115.644C151.28 116.364 149.905 116.95 148.53 117.401C147.157 117.852 145.481 118.084 143.507 118.096C141.533 118.109 139.818 118.08 138.363 118.012C136.908 117.943 135.123 117.715 133.006 117.327C130.889 116.938 129.287 116.636 128.201 116.418C127.114 116.2 125.639 115.86 123.773 115.396C122.79 115.152 122.023 114.961 121.47 114.825C120.934 114.693 120.6 114.153 120.724 113.615L126.853 87.0719ZM152.314 159.441C151.373 160.762 150.303 161.853 149.102 162.713C147.901 163.57 146.426 164.233 144.682 164.699C142.937 165.166 141.274 165.483 139.699 165.654C138.12 165.827 136.256 165.862 134.107 165.768C131.953 165.673 130.084 165.523 128.49 165.324C126.899 165.124 125.014 164.822 122.833 164.42C120.654 164.015 118.96 163.675 117.754 163.396C116.548 163.118 115.029 162.749 113.195 162.293C112.12 162.026 111.273 161.817 110.654 161.667C110.118 161.536 109.783 160.997 109.907 160.459L116.662 131.2C116.911 130.124 117.986 129.444 119.068 129.668C119.762 129.812 120.625 129.99 121.657 130.2C124.18 130.715 126.232 131.157 127.819 131.524C129.406 131.89 131.575 132.49 134.325 133.326C137.072 134.16 139.355 134.987 141.173 135.807C142.989 136.628 144.931 137.694 147.002 139.009C149.072 140.322 150.674 141.711 151.807 143.176C152.94 144.643 153.777 146.372 154.318 148.369C154.862 150.366 154.869 152.508 154.341 154.794C153.93 156.573 153.256 158.119 152.314 159.441Z" fill="#FFFDF9"/>
<g opacity="0.61" filter="url(#filter4_f_117_10238)">
<path d="M168.061 126.894L176.532 119.917C181.84 115.546 184.53 108.755 183.656 101.935L182.561 93.3936" stroke="#FEA432" stroke-width="4"/>
</g>
<g opacity="0.5" filter="url(#filter5_f_117_10238)">
<path d="M155.303 119.5L157.739 116.394C161.263 111.901 162.698 106.115 161.683 100.495L160.288 92.7783" stroke="white" stroke-width="4"/>
</g>
<g opacity="0.5" filter="url(#filter6_f_117_10238)">
<path d="M150.762 165.722L153.783 163.181C158.153 159.505 160.744 154.136 160.901 148.428L161.118 140.589" stroke="white" stroke-width="4"/>
</g>
<g opacity="0.3" filter="url(#filter7_f_117_10238)">
<path d="M101.006 92.7785L102.098 89.4676C103.488 85.2563 103.093 80.6599 101.006 76.7471V76.7471" stroke="#FEA432" stroke-width="2"/>
</g>
<g opacity="0.3" filter="url(#filter8_f_117_10238)">
<path d="M80.5879 160.703V160.703C84.4397 159.291 87.5517 156.373 89.2088 152.62L90.031 150.758" stroke="#FEA432" stroke-width="2"/>
</g>
<g opacity="0.61" filter="url(#filter9_f_117_10238)">
<path d="M124.764 85.0781L118.385 112.273" stroke="#FEA432" stroke-width="4"/>
</g>
<g opacity="0.34" filter="url(#filter10_f_117_10238)">
<path d="M152.816 91.0791L129.045 83.6943" stroke="#FEA432" stroke-width="4"/>
</g>
<g opacity="0.34" filter="url(#filter11_f_117_10238)">
<path d="M146.209 133.793L122.438 126.408" stroke="#FEA432" stroke-width="4"/>
</g>
<g opacity="0.3" filter="url(#filter12_f_117_10238)">
<path d="M85.7793 200.107L90.0312 206.479" stroke="#FEA432" stroke-width="4"/>
</g>
<g opacity="0.3" filter="url(#filter13_f_117_10238)">
<path d="M113.014 206.479L117.266 212.85" stroke="#FEA432" stroke-width="4"/>
</g>
<g opacity="0.5" filter="url(#filter14_f_117_10238)">
<path d="M107.132 80.9912L90.0312 151.814" stroke="white" stroke-width="4"/>
</g>
<g opacity="0.61" filter="url(#filter15_f_117_10238)">
<path d="M113.014 128.536L106.635 155.731" stroke="#FEA432" stroke-width="4"/>
</g>
<g filter="url(#filter16_f_117_10238)">
<path d="M123.838 206.478L129.044 185.375" stroke="#FEA432" stroke-width="2"/>
</g>
<g opacity="0.61" filter="url(#filter17_f_117_10238)">
<path d="M159.291 181.703L171.905 171.16C177.131 166.792 179.775 160.065 178.921 153.308L177.203 139.703" stroke="#FEA432" stroke-width="4"/>
</g>
<defs>
<filter id="filter0_f_117_10238" x="46.8809" y="38.585" width="160.211" height="202.968" filterUnits="userSpaceOnUse" color-interpolation-filters="sRGB">
<feFlood flood-opacity="0" result="BackgroundImageFix"/>
<feBlend mode="normal" in="SourceGraphic" in2="BackgroundImageFix" result="shape"/>
<feGaussianBlur stdDeviation="8" result="effect1_foregroundBlur_117_10238"/>
</filter>
<filter id="filter1_f_117_10238" x="30.8809" y="22.585" width="192.211" height="234.968" filterUnits="userSpaceOnUse" color-interpolation-filters="sRGB">
<feFlood flood-opacity="0" result="BackgroundImageFix"/>
<feBlend mode="normal" in="SourceGraphic" in2="BackgroundImageFix" result="shape"/>
<feGaussianBlur stdDeviation="16" result="effect1_foregroundBlur_117_10238"/>
</filter>
<filter id="filter2_f_117_10238" x="147.111" y="80.5684" width="50.9707" height="110.784" filterUnits="userSpaceOnUse" color-interpolation-filters="sRGB">
<feFlood flood-opacity="0" result="BackgroundImageFix"/>
<feBlend mode="normal" in="SourceGraphic" in2="BackgroundImageFix" result="shape"/>
<feGaussianBlur stdDeviation="5" result="effect1_foregroundBlur_117_10238"/>
</filter>
<filter id="filter3_f_117_10238" x="101.953" y="65.7441" width="50.7637" height="120.729" filterUnits="userSpaceOnUse" color-interpolation-filters="sRGB">
<feFlood flood-opacity="0" result="BackgroundImageFix"/>
<feBlend mode="normal" in="SourceGraphic" in2="BackgroundImageFix" result="shape"/>
<feGaussianBlur stdDeviation="5" result="effect1_foregroundBlur_117_10238"/>
</filter>
<filter id="filter4_f_117_10238" x="156.789" y="83.1396" width="39.0293" height="55.2979" filterUnits="userSpaceOnUse" color-interpolation-filters="sRGB">
<feFlood flood-opacity="0" result="BackgroundImageFix"/>
<feBlend mode="normal" in="SourceGraphic" in2="BackgroundImageFix" result="shape"/>
<feGaussianBlur stdDeviation="5" result="effect1_foregroundBlur_117_10238"/>
</filter>
<filter id="filter5_f_117_10238" x="143.729" y="82.4229" width="30.2734" height="48.3115" filterUnits="userSpaceOnUse" color-interpolation-filters="sRGB">
<feFlood flood-opacity="0" result="BackgroundImageFix"/>
<feBlend mode="normal" in="SourceGraphic" in2="BackgroundImageFix" result="shape"/>
<feGaussianBlur stdDeviation="5" result="effect1_foregroundBlur_117_10238"/>
</filter>
<filter id="filter6_f_117_10238" x="139.475" y="130.534" width="33.6426" height="46.7188" filterUnits="userSpaceOnUse" color-interpolation-filters="sRGB">
<feFlood flood-opacity="0" result="BackgroundImageFix"/>
<feBlend mode="normal" in="SourceGraphic" in2="BackgroundImageFix" result="shape"/>
<feGaussianBlur stdDeviation="5" result="effect1_foregroundBlur_117_10238"/>
</filter>
<filter id="filter7_f_117_10238" x="90.0566" y="66.2764" width="23.8594" height="36.8154" filterUnits="userSpaceOnUse" color-interpolation-filters="sRGB">
<feFlood flood-opacity="0" result="BackgroundImageFix"/>
<feBlend mode="normal" in="SourceGraphic" in2="BackgroundImageFix" result="shape"/>
<feGaussianBlur stdDeviation="5" result="effect1_foregroundBlur_117_10238"/>
</filter>
<filter id="filter8_f_117_10238" x="70.2441" y="140.354" width="30.7012" height="31.2881" filterUnits="userSpaceOnUse" color-interpolation-filters="sRGB">
<feFlood flood-opacity="0" result="BackgroundImageFix"/>
<feBlend mode="normal" in="SourceGraphic" in2="BackgroundImageFix" result="shape"/>
<feGaussianBlur stdDeviation="5" result="effect1_foregroundBlur_117_10238"/>
</filter>
<filter id="filter9_f_117_10238" x="106.438" y="74.6211" width="30.2734" height="48.1084" filterUnits="userSpaceOnUse" color-interpolation-filters="sRGB">
<feFlood flood-opacity="0" result="BackgroundImageFix"/>
<feBlend mode="normal" in="SourceGraphic" in2="BackgroundImageFix" result="shape"/>
<feGaussianBlur stdDeviation="5" result="effect1_foregroundBlur_117_10238"/>
</filter>
<filter id="filter10_f_117_10238" x="118.451" y="71.7842" width="44.959" height="31.2051" filterUnits="userSpaceOnUse" color-interpolation-filters="sRGB">
<feFlood flood-opacity="0" result="BackgroundImageFix"/>
<feBlend mode="normal" in="SourceGraphic" in2="BackgroundImageFix" result="shape"/>
<feGaussianBlur stdDeviation="5" result="effect1_foregroundBlur_117_10238"/>
</filter>
<filter id="filter11_f_117_10238" x="111.844" y="114.498" width="44.959" height="31.2051" filterUnits="userSpaceOnUse" color-interpolation-filters="sRGB">
<feFlood flood-opacity="0" result="BackgroundImageFix"/>
<feBlend mode="normal" in="SourceGraphic" in2="BackgroundImageFix" result="shape"/>
<feGaussianBlur stdDeviation="5" result="effect1_foregroundBlur_117_10238"/>
</filter>
<filter id="filter12_f_117_10238" x="80.1152" y="194.997" width="15.5801" height="16.5918" filterUnits="userSpaceOnUse" color-interpolation-filters="sRGB">
<feFlood flood-opacity="0" result="BackgroundImageFix"/>
<feBlend mode="normal" in="SourceGraphic" in2="BackgroundImageFix" result="shape"/>
<feGaussianBlur stdDeviation="2" result="effect1_foregroundBlur_117_10238"/>
</filter>
<filter id="filter13_f_117_10238" x="107.35" y="201.368" width="15.5801" height="16.5918" filterUnits="userSpaceOnUse" color-interpolation-filters="sRGB">
<feFlood flood-opacity="0" result="BackgroundImageFix"/>
<feBlend mode="normal" in="SourceGraphic" in2="BackgroundImageFix" result="shape"/>
<feGaussianBlur stdDeviation="2" result="effect1_foregroundBlur_117_10238"/>
</filter>
<filter id="filter14_f_117_10238" x="78.0879" y="70.5215" width="40.9883" height="91.7617" filterUnits="userSpaceOnUse" color-interpolation-filters="sRGB">
<feFlood flood-opacity="0" result="BackgroundImageFix"/>
<feBlend mode="normal" in="SourceGraphic" in2="BackgroundImageFix" result="shape"/>
<feGaussianBlur stdDeviation="5" result="effect1_foregroundBlur_117_10238"/>
</filter>
<filter id="filter15_f_117_10238" x="94.6875" y="118.079" width="30.2734" height="48.1084" filterUnits="userSpaceOnUse" color-interpolation-filters="sRGB">
<feFlood flood-opacity="0" result="BackgroundImageFix"/>
<feBlend mode="normal" in="SourceGraphic" in2="BackgroundImageFix" result="shape"/>
<feGaussianBlur stdDeviation="5" result="effect1_foregroundBlur_117_10238"/>
</filter>
<filter id="filter16_f_117_10238" x="112.867" y="175.136" width="27.1484" height="41.582" filterUnits="userSpaceOnUse" color-interpolation-filters="sRGB">
<feFlood flood-opacity="0" result="BackgroundImageFix"/>
<feBlend mode="normal" in="SourceGraphic" in2="BackgroundImageFix" result="shape"/>
<feGaussianBlur stdDeviation="5" result="effect1_foregroundBlur_117_10238"/>
</filter>
<filter id="filter17_f_117_10238" x="148.008" y="129.452" width="43.0723" height="63.7852" filterUnits="userSpaceOnUse" color-interpolation-filters="sRGB">
<feFlood flood-opacity="0" result="BackgroundImageFix"/>
<feBlend mode="normal" in="SourceGraphic" in2="BackgroundImageFix" result="shape"/>
<feGaussianBlur stdDeviation="5" result="effect1_foregroundBlur_117_10238"/>
</filter>
<linearGradient id="paint0_linear_117_10238" x1="128" y1="0" x2="76.5" y2="247.5" gradientUnits="userSpaceOnUse">
<stop stop-color="#FFB018"/>
<stop offset="1" stop-color="#FF7E05"/>
</linearGradient>
</defs>
</svg>
